<svg id="Group_932" data-name="Group 932" xmlns="http://www.w3.org/2000/svg" xmlns:xlink="http://www.w3.org/1999/xlink" width="72" height="62" viewBox="0 0 72 62">
  <defs>
    <style>
      .cls-1 {
        fill: #190834;
        stroke: #51b121;
        stroke-linejoin: round;
      }

      .cls-2 {
        clip-path: url(#clip-path);
      }

      .cls-3 {
        opacity: 0.431;
      }

      .cls-4 {
        fill: #4c8613;
      }

      .cls-5 {
        fill: #fff;
      }

      .cls-6 {
        stroke: none;
      }

      .cls-7 {
        fill: none;
      }
    </style>
    <clipPath id="clip-path">
      <rect id="Rounded_Rectangle_654" data-name="Rounded Rectangle 654" class="cls-1" width="72" height="62" rx="15"/>
    </clipPath>
  </defs>
  <g id="Rounded_Rectangle_654-2" data-name="Rounded Rectangle 654">
    <g id="Rounded_Rectangle_654-3" data-name="Rounded Rectangle 654" class="cls-1">
      <rect class="cls-6" width="72" height="62" rx="30"/>
      <rect class="cls-7" x="0.5" y="0.5" width="71" height="61" rx="29.5"/>
    </g>
    <g id="Clip" class="cls-2">
      <image id="Layer_655" data-name="Layer 655" width="92.933" height="117.309" transform="translate(-14.271 -41.767)" xlink:href="Group%20932-image.png"/>
    </g>
  </g>
  <g id="location" transform="translate(35.621 17.537)">
    <image id="Layer_6" data-name="Layer 6" class="cls-3" width="9.522" height="1.904" transform="translate(3.049 15.783)" xlink:href="Group%20932-image2.png"/>
    <path id="Shape_3" data-name="Shape 3" class="cls-4" d="M4237.942,5827.176a6.479,6.479,0,0,0-12.943,0c-.165,4.973,3.987,6.469,5.813,9.66a.768.768,0,0,0,1.317,0C4233.954,5833.645,4238.106,5832.149,4237.942,5827.176Zm-6.472,4.683a4.637,4.637,0,1,1,4.855-4.633A4.749,4.749,0,0,1,4231.47,5831.858Z" transform="translate(-4224.994 -5821)"/>
    <ellipse id="Ellipse_6" data-name="Ellipse 6" class="cls-5" cx="4.879" cy="4.734" rx="4.879" ry="4.734" transform="translate(1.606 1.539)"/>
  </g>
</svg>
