<svg xmlns="http://www.w3.org/2000/svg" width="247.562" height="222.669" viewBox="0 0 247.562 222.669">
  <g id="Group_17572" data-name="Group 17572" transform="translate(-51.351 -68.874)">
    <g id="Background_Simple" data-name="Background Simple" transform="translate(60.157 68.874)">
      <g id="background-simple--inject-1">
        <path id="Path_1" data-name="Path 1" d="M71.039,151.977c-7.348,20.289-7.779,41.69,5.566,59.983,19.323,26.485,52.223,25.755,77.741,34.087,13.353,4.362,21.631,16.255,33.173,23.494,35.743,22.42,85.526-5.662,101.919-39.863,32.659-68.14-37.189-152.74-105.763-160.344-20.25-2.245-41.016,3.866-58,14.806C102.015,99.38,80.651,125.433,71.039,151.977Z" transform="translate(-65.94 -68.874)" fill="#4c8613"/>
        <path id="Path_2" data-name="Path 2" d="M71.039,151.977c-7.348,20.289-7.779,41.69,5.566,59.983,19.323,26.485,52.223,25.755,77.741,34.087,13.353,4.362,21.631,16.255,33.173,23.494,35.743,22.42,85.526-5.662,101.919-39.863,32.659-68.14-37.189-152.74-105.763-160.344-20.25-2.245-41.016,3.866-58,14.806C102.015,99.38,80.651,125.433,71.039,151.977Z" transform="translate(-65.94 -68.874)" fill="#fff" opacity="0.7"/>
      </g>
    </g>
    <g id="Shape" transform="translate(51.351 203.858)">
      <g id="Group_2" data-name="Group 2">
        <g id="Group_1" data-name="Group 1" transform="translate(1.832 60.743)">
          <ellipse id="Ellipse_1" data-name="Ellipse 1" cx="111.619" cy="13.471" rx="111.619" ry="13.471" fill="#4c8613"/>
          <ellipse id="Ellipse_2" data-name="Ellipse 2" cx="111.619" cy="13.471" rx="111.619" ry="13.471" opacity="0.2"/>
        </g>
        <g id="Plants--inject-125" transform="translate(202.577)">
          <path id="Path_3" data-name="Path 3" d="M407.126,314.109a4.877,4.877,0,0,0,1.9-3.642c-.049-1.486-1.123-2.845-2.449-2.784-1.838.083-3.34,3.351-3.615,5.194-.027.182-.148,2.751-.115,2.751C402.845,315.627,405.992,315.061,407.126,314.109Z" transform="translate(-393.269 -298.529)" fill="#4c8613"/>
          <path id="Path_4" data-name="Path 4" d="M402.072,354.353c.329.214,2.971,1.931,4.335,2.112a3.781,3.781,0,0,0,3.62-1.1,2.878,2.878,0,0,0-.479-3.78c-1.574-1.315-4.649-.176-5.92.925-.077.071-.946,1.023-1.381,1.519.247-.5.517-1,.8-1.519.391-.748.831-1.524,1.254-2.278l.7-1.15c.231-.38.5-.721.743-1.1.38-.54.793-1.062,1.2-1.612a15.243,15.243,0,0,0,3.885,2.658c1.222.374,2.833.467,3.785-.457a2.784,2.784,0,0,0,0-3.758c-1.4-1.557-4.638-.974-6.052-.148-.044.027-.325.242-.655.5.418-.506.831-1.012,1.276-1.507,1.222-1.42,2.537-2.784,3.851-4.171l.809-.875a16.4,16.4,0,0,0,3.989,2.75c1.222.38,2.834.473,3.78-.456a2.751,2.751,0,0,0,0-3.758c-1.4-1.557-4.638-.974-6.053-.143-.055.028-.385.286-.759.578.7-.77,1.4-1.546,2.058-2.344a37.072,37.072,0,0,0,3.158-4.363c.2.182,2.718,2.415,4.093,2.839,1.227.38,2.839.473,3.786-.451a2.784,2.784,0,0,0,0-3.763c-1.4-1.557-4.638-.968-6.053-.143-.1.06-1.3,1-1.717,1.348l.039-.055A30.331,30.331,0,0,0,422.5,325.7a45.05,45.05,0,0,0,1.485-4.775c.4-1.513.671-2.933.913-4.187.121-.688.226-1.315.314-1.9v.039c.022.033,1.277-1.975,1.337-2.119.759-1.607,1.348-5.342.039-6.993a2,2,0,0,0-3.263-.077c-.825,1.051-.8,2.9-.495,4.352a20.435,20.435,0,0,0,2.289,4.687c-.1.611-.22,1.255-.363,1.97-.258,1.243-.567,2.651-.99,4.137-.11.4-.243.82-.369,1.233.083-.759.176-1.8.176-1.909,0-1.9-.98-5.7-2.751-6.553-1.26-.639-2.481.209-2.751,1.65a6.218,6.218,0,0,0,1.326,4.33,17.009,17.009,0,0,0,3.824,3.175c-.286.9-.6,1.821-.979,2.751a29.618,29.618,0,0,1-2.4,4.819l-.094-.06c.148-.677.44-2.118.44-2.245.171-1.876-.462-5.733-2.162-6.795a1.928,1.928,0,0,0-2.944,1.287,6.3,6.3,0,0,0,.924,4.429,19.016,19.016,0,0,0,3.632,3.681,37.881,37.881,0,0,1-3.147,4.126c-.836.958-1.717,1.882-2.608,2.8.115-.473.5-2.365.5-2.5.171-1.876-.462-5.733-2.162-6.8a1.942,1.942,0,0,0-2.944,1.293,6.277,6.277,0,0,0,.919,4.4A18.865,18.865,0,0,0,413.8,337.6l-1.216,1.243c-1.342,1.331-2.685,2.7-3.977,4.082-.445.479-.869.969-1.293,1.458.148-.715.418-2.03.418-2.146.176-1.876-.462-5.733-2.163-6.8a1.94,1.94,0,0,0-2.944,1.293,6.2,6.2,0,0,0,.925,4.4,18,18,0,0,0,3.472,3.554c-.7.825-1.381,1.661-2.014,2.525-.242.38-.561.748-.792,1.127l-.727,1.134c-.473.792-.913,1.529-1.331,2.283-.214.363-.407.727-.611,1.1.253-.687.66-1.788.66-1.892.418-1.794.292-5.662-1.276-6.994a1.931,1.931,0,0,0-3.125.738,2.816,2.816,0,0,0-.176.5,8.648,8.648,0,0,0-2.349,3.851c-.028.115-.248,1.518-.341,2.245-.039-.616-.083-1.227-.116-1.866-.049-.919-.083-1.892-.115-2.833,0-.49.011-.968,0-1.475s.044-.98.044-1.474c.033-.721.1-1.464.165-2.2a11.676,11.676,0,0,0,4.291-.127,4.28,4.28,0,0,0,2.751-2.834,2.878,2.878,0,0,0-1.788-3.361c-1.843-.484-4.083,2.112-4.787,3.763-.022.049-.138.424-.27.864.083-.721.165-1.441.27-2.162.3-2.053.655-4.121,1.007-6.2.077-.435.143-.869.215-1.3a12.681,12.681,0,0,0,4.4-.115,4.24,4.24,0,0,0,2.751-2.828,2.873,2.873,0,0,0-1.788-3.362c-1.843-.484-4.083,2.108-4.781,3.758-.028.061-.165.5-.314,1,.176-1.133.341-2.266.473-3.4a49.043,49.043,0,0,0,.363-5.915c.242.033,3.274.413,4.544-.094A4.279,4.279,0,0,0,405,316.312a2.874,2.874,0,0,0-1.788-3.362c-1.843-.484-4.083,2.113-4.781,3.763-.049.1-.534,1.717-.687,2.3v-.072a38.811,38.811,0,0,0-.55-5.893,52.1,52.1,0,0,0-1.139-5.2c-.413-1.6-.88-3.043-1.3-4.314-.231-.687-.457-1.315-.666-1.9h.039v-2.751c-.16-1.914-1.481-5.612-3.3-6.25-1.309-.462-2.437.534-2.569,2.019a6.229,6.229,0,0,0,1.7,4.193A16.392,16.392,0,0,0,394,301.556c.209.6.429,1.26.66,1.986.391,1.277.831,2.724,1.216,4.319.1.429.2.891.3,1.331-.3-.7-.732-1.717-.782-1.8-.9-1.694-3.516-4.44-5.3-4.066-1.287.269-1.832,1.81-1.348,3.268a5.484,5.484,0,0,0,3.109,3,12.978,12.978,0,0,0,4.495.38c.2.984.4,2.008.55,3.075a38.5,38.5,0,0,1,.445,5.838h-.1c-.209-.7-.682-2.163-.732-2.278-.776-1.782-3.12-4.814-4.952-4.671-1.3.1-2,1.546-1.651,3.037a5.784,5.784,0,0,0,2.839,3.35,13.965,13.965,0,0,0,4.583.952,49.045,49.045,0,0,1-.462,5.689c-.187,1.392-.429,2.778-.682,4.171-.138-.5-.759-2.416-.814-2.553-.776-1.783-3.12-4.809-4.952-4.671-1.3.1-2,1.54-1.651,3.037a5.794,5.794,0,0,0,2.839,3.356,13.616,13.616,0,0,0,4.561.946c-.115.633-.231,1.266-.352,1.893-.391,2.063-.792,4.126-1.134,6.184-.115.71-.209,1.42-.3,2.135-.226-.754-.66-2.091-.7-2.2-.776-1.782-3.12-4.814-4.952-4.671-1.3.1-2,1.546-1.651,3.037a5.824,5.824,0,0,0,2.839,3.35,13.169,13.169,0,0,0,4.4.936c-.148,1.188-.28,2.366-.357,3.544-.022.511-.072,1.023-.072,1.519v1.469c.017,1.013.028,1.948.061,2.889.016.479.06.93.06,1.392-.132-.776-.363-2-.4-2.112-.534-1.87-2.487-5.227-4.347-5.414-1.337-.132-2.228,1.139-2.074,2.658a6.1,6.1,0,0,0,2.409,3.763,14.943,14.943,0,0,0,4.435,1.722c.05,1.133.115,2.234.187,3.268.2,2.938.467,5.474.688,7.339h1.232c-.275-1.826-.561-4.357-.826-7.328-.082-.929-.159-1.92-.231-2.938a13.265,13.265,0,0,0,4.253-.826A29.06,29.06,0,0,0,401.4,353.3c-.495.919-.968,1.811-1.4,2.663-1.194,2.355-2.151,4.418-2.845,5.992h1.425c.622-1.463,1.42-3.262,2.388-5.276C401.357,355.915,401.748,355.073,402.072,354.353Z" transform="translate(-386.984 -292.518)" fill="#4c8613"/>
          <path id="Path_5" data-name="Path 5" d="M455.7,339.416a2.917,2.917,0,0,0-.831-3.731c-1.678-1.111-4.583.462-5.716,1.717-.1.11-1.42,2.041-1.414,2.047s3.087,1.584,4.534,1.584A3.833,3.833,0,0,0,455.7,339.416Z" transform="translate(-411.071 -309.481)" fill="#4c8613"/>
          <path id="Path_6" data-name="Path 6" d="M407.126,314.109a4.877,4.877,0,0,0,1.9-3.642c-.049-1.486-1.123-2.845-2.449-2.784-1.838.083-3.34,3.351-3.615,5.194-.027.182-.148,2.751-.115,2.751C402.845,315.627,405.992,315.061,407.126,314.109Z" transform="translate(-393.269 -298.529)" opacity="0.2"/>
          <path id="Path_7" data-name="Path 7" d="M402.072,354.353c.329.214,2.971,1.931,4.335,2.112a3.781,3.781,0,0,0,3.62-1.1,2.878,2.878,0,0,0-.479-3.78c-1.574-1.315-4.649-.176-5.92.925-.077.071-.946,1.023-1.381,1.519.247-.5.517-1,.8-1.519.391-.748.831-1.524,1.254-2.278l.7-1.15c.231-.38.5-.721.743-1.1.38-.54.793-1.062,1.2-1.612a15.243,15.243,0,0,0,3.885,2.658c1.222.374,2.833.467,3.785-.457a2.784,2.784,0,0,0,0-3.758c-1.4-1.557-4.638-.974-6.052-.148-.044.027-.325.242-.655.5.418-.506.831-1.012,1.276-1.507,1.222-1.42,2.537-2.784,3.851-4.171l.809-.875a16.4,16.4,0,0,0,3.989,2.75c1.222.38,2.834.473,3.78-.456a2.751,2.751,0,0,0,0-3.758c-1.4-1.557-4.638-.974-6.053-.143-.055.028-.385.286-.759.578.7-.77,1.4-1.546,2.058-2.344a37.072,37.072,0,0,0,3.158-4.363c.2.182,2.718,2.415,4.093,2.839,1.227.38,2.839.473,3.786-.451a2.784,2.784,0,0,0,0-3.763c-1.4-1.557-4.638-.968-6.053-.143-.1.06-1.3,1-1.717,1.348l.039-.055A30.331,30.331,0,0,0,422.5,325.7a45.05,45.05,0,0,0,1.485-4.775c.4-1.513.671-2.933.913-4.187.121-.688.226-1.315.314-1.9v.039c.022.033,1.277-1.975,1.337-2.119.759-1.607,1.348-5.342.039-6.993a2,2,0,0,0-3.263-.077c-.825,1.051-.8,2.9-.495,4.352a20.435,20.435,0,0,0,2.289,4.687c-.1.611-.22,1.255-.363,1.97-.258,1.243-.567,2.651-.99,4.137-.11.4-.243.82-.369,1.233.083-.759.176-1.8.176-1.909,0-1.9-.98-5.7-2.751-6.553-1.26-.639-2.481.209-2.751,1.65a6.218,6.218,0,0,0,1.326,4.33,17.009,17.009,0,0,0,3.824,3.175c-.286.9-.6,1.821-.979,2.751a29.618,29.618,0,0,1-2.4,4.819l-.094-.06c.148-.677.44-2.118.44-2.245.171-1.876-.462-5.733-2.162-6.795a1.928,1.928,0,0,0-2.944,1.287,6.3,6.3,0,0,0,.924,4.429,19.016,19.016,0,0,0,3.632,3.681,37.881,37.881,0,0,1-3.147,4.126c-.836.958-1.717,1.882-2.608,2.8.115-.473.5-2.365.5-2.5.171-1.876-.462-5.733-2.162-6.8a1.942,1.942,0,0,0-2.944,1.293,6.277,6.277,0,0,0,.919,4.4A18.865,18.865,0,0,0,413.8,337.6l-1.216,1.243c-1.342,1.331-2.685,2.7-3.977,4.082-.445.479-.869.969-1.293,1.458.148-.715.418-2.03.418-2.146.176-1.876-.462-5.733-2.163-6.8a1.94,1.94,0,0,0-2.944,1.293,6.2,6.2,0,0,0,.925,4.4,18,18,0,0,0,3.472,3.554c-.7.825-1.381,1.661-2.014,2.525-.242.38-.561.748-.792,1.127l-.727,1.134c-.473.792-.913,1.529-1.331,2.283-.214.363-.407.727-.611,1.1.253-.687.66-1.788.66-1.892.418-1.794.292-5.662-1.276-6.994a1.931,1.931,0,0,0-3.125.738,2.816,2.816,0,0,0-.176.5,8.648,8.648,0,0,0-2.349,3.851c-.028.115-.248,1.518-.341,2.245-.039-.616-.083-1.227-.116-1.866-.049-.919-.083-1.892-.115-2.833,0-.49.011-.968,0-1.475s.044-.98.044-1.474c.033-.721.1-1.464.165-2.2a11.676,11.676,0,0,0,4.291-.127,4.28,4.28,0,0,0,2.751-2.834,2.878,2.878,0,0,0-1.788-3.361c-1.843-.484-4.083,2.112-4.787,3.763-.022.049-.138.424-.27.864.083-.721.165-1.441.27-2.162.3-2.053.655-4.121,1.007-6.2.077-.435.143-.869.215-1.3a12.681,12.681,0,0,0,4.4-.115,4.24,4.24,0,0,0,2.751-2.828,2.873,2.873,0,0,0-1.788-3.362c-1.843-.484-4.083,2.108-4.781,3.758-.028.061-.165.5-.314,1,.176-1.133.341-2.266.473-3.4a49.043,49.043,0,0,0,.363-5.915c.242.033,3.274.413,4.544-.094A4.279,4.279,0,0,0,405,316.312a2.874,2.874,0,0,0-1.788-3.362c-1.843-.484-4.083,2.113-4.781,3.763-.049.1-.534,1.717-.687,2.3v-.072a38.811,38.811,0,0,0-.55-5.893,52.1,52.1,0,0,0-1.139-5.2c-.413-1.6-.88-3.043-1.3-4.314-.231-.687-.457-1.315-.666-1.9h.039v-2.751c-.16-1.914-1.481-5.612-3.3-6.25-1.309-.462-2.437.534-2.569,2.019a6.229,6.229,0,0,0,1.7,4.193A16.392,16.392,0,0,0,394,301.556c.209.6.429,1.26.66,1.986.391,1.277.831,2.724,1.216,4.319.1.429.2.891.3,1.331-.3-.7-.732-1.717-.782-1.8-.9-1.694-3.516-4.44-5.3-4.066-1.287.269-1.832,1.81-1.348,3.268a5.484,5.484,0,0,0,3.109,3,12.978,12.978,0,0,0,4.495.38c.2.984.4,2.008.55,3.075a38.5,38.5,0,0,1,.445,5.838h-.1c-.209-.7-.682-2.163-.732-2.278-.776-1.782-3.12-4.814-4.952-4.671-1.3.1-2,1.546-1.651,3.037a5.784,5.784,0,0,0,2.839,3.35,13.965,13.965,0,0,0,4.583.952,49.045,49.045,0,0,1-.462,5.689c-.187,1.392-.429,2.778-.682,4.171-.138-.5-.759-2.416-.814-2.553-.776-1.783-3.12-4.809-4.952-4.671-1.3.1-2,1.54-1.651,3.037a5.794,5.794,0,0,0,2.839,3.356,13.616,13.616,0,0,0,4.561.946c-.115.633-.231,1.266-.352,1.893-.391,2.063-.792,4.126-1.134,6.184-.115.71-.209,1.42-.3,2.135-.226-.754-.66-2.091-.7-2.2-.776-1.782-3.12-4.814-4.952-4.671-1.3.1-2,1.546-1.651,3.037a5.824,5.824,0,0,0,2.839,3.35,13.169,13.169,0,0,0,4.4.936c-.148,1.188-.28,2.366-.357,3.544-.022.511-.072,1.023-.072,1.519v1.469c.017,1.013.028,1.948.061,2.889.016.479.06.93.06,1.392-.132-.776-.363-2-.4-2.112-.534-1.87-2.487-5.227-4.347-5.414-1.337-.132-2.228,1.139-2.074,2.658a6.1,6.1,0,0,0,2.409,3.763,14.943,14.943,0,0,0,4.435,1.722c.05,1.133.115,2.234.187,3.268.2,2.938.467,5.474.688,7.339h1.232c-.275-1.826-.561-4.357-.826-7.328-.082-.929-.159-1.92-.231-2.938a13.265,13.265,0,0,0,4.253-.826A29.06,29.06,0,0,0,401.4,353.3c-.495.919-.968,1.811-1.4,2.663-1.194,2.355-2.151,4.418-2.845,5.992h1.425c.622-1.463,1.42-3.262,2.388-5.276C401.357,355.915,401.748,355.073,402.072,354.353Z" transform="translate(-386.984 -292.518)" opacity="0.2"/>
          <path id="Path_8" data-name="Path 8" d="M455.7,339.416a2.917,2.917,0,0,0-.831-3.731c-1.678-1.111-4.583.462-5.716,1.717-.1.11-1.42,2.041-1.414,2.047s3.087,1.584,4.534,1.584A3.833,3.833,0,0,0,455.7,339.416Z" transform="translate(-411.071 -309.481)" opacity="0.2"/>
        </g>
        <g id="Plants--inject-125-2" data-name="Plants--inject-125" transform="translate(0 3.055)">
          <path id="Path_9" data-name="Path 9" d="M101.677,319.17a4.876,4.876,0,0,1-1.9-3.642c.049-1.486,1.123-2.845,2.449-2.784,1.837.083,3.34,3.351,3.615,5.194.027.182.148,2.751.115,2.751C105.958,320.688,102.811,320.122,101.677,319.17Z" transform="translate(-70.548 -303.59)" fill="#4c8613"/>
          <path id="Path_10" data-name="Path 10" d="M83.436,359.414c-.33.214-2.971,1.931-4.335,2.112a3.781,3.781,0,0,1-3.62-1.1,2.878,2.878,0,0,1,.479-3.78c1.573-1.315,4.649-.176,5.92.924.077.072.946,1.024,1.381,1.519-.247-.5-.517-1-.8-1.519-.391-.748-.831-1.524-1.255-2.278l-.7-1.15c-.231-.38-.5-.721-.743-1.1-.38-.54-.792-1.062-1.2-1.612a15.255,15.255,0,0,1-3.885,2.658c-1.222.374-2.834.468-3.786-.457a2.785,2.785,0,0,1,0-3.758c1.4-1.557,4.638-.974,6.053-.148.043.028.324.242.654.5-.418-.506-.831-1.013-1.277-1.508-1.221-1.42-2.536-2.784-3.851-4.171l-.809-.875a16.421,16.421,0,0,1-3.989,2.751c-1.222.38-2.834.473-3.78-.457a2.751,2.751,0,0,1,0-3.758c1.4-1.557,4.638-.974,6.052-.143.056.028.385.286.759.578-.7-.77-1.4-1.546-2.058-2.344a36.977,36.977,0,0,1-3.158-4.363c-.2.182-2.718,2.415-4.093,2.839-1.227.38-2.839.473-3.786-.451a2.784,2.784,0,0,1,0-3.763c1.4-1.557,4.638-.968,6.052-.143.1.061,1.3,1,1.717,1.348l-.038-.056a30.28,30.28,0,0,1-2.322-4.952,44.919,44.919,0,0,1-1.485-4.775c-.4-1.513-.672-2.933-.914-4.187-.121-.688-.225-1.315-.313-1.9v.039c-.022.033-1.277-1.975-1.337-2.119-.759-1.607-1.348-5.342-.039-6.993a2,2,0,0,1,3.262-.077c.826,1.051.8,2.9.5,4.352a20.452,20.452,0,0,1-2.289,4.688c.1.61.22,1.254.363,1.969.259,1.243.567,2.652.99,4.137.11.4.242.82.369,1.233-.083-.759-.176-1.8-.176-1.909,0-1.9.98-5.7,2.751-6.553,1.26-.638,2.481.209,2.751,1.651a6.219,6.219,0,0,1-1.326,4.33,17.017,17.017,0,0,1-3.824,3.174c.286.9.6,1.822.979,2.751a29.626,29.626,0,0,0,2.4,4.82l.094-.061c-.148-.677-.441-2.118-.441-2.245-.17-1.876.462-5.733,2.163-6.795a1.928,1.928,0,0,1,2.944,1.287A6.3,6.3,0,0,1,69.51,332a19.036,19.036,0,0,1-3.631,3.681,37.948,37.948,0,0,0,3.147,4.127c.837.957,1.717,1.881,2.608,2.8-.115-.473-.5-2.366-.5-2.5-.171-1.876.462-5.733,2.162-6.8a1.942,1.942,0,0,1,2.944,1.293,6.283,6.283,0,0,1-.919,4.4,18.894,18.894,0,0,1-3.609,3.664l1.216,1.243c1.343,1.331,2.685,2.7,3.978,4.083.445.479.869.968,1.293,1.458-.148-.715-.418-2.03-.418-2.146-.176-1.876.462-5.733,2.163-6.8a1.94,1.94,0,0,1,2.944,1.293,6.2,6.2,0,0,1-.925,4.4,18,18,0,0,1-3.472,3.554c.7.825,1.381,1.662,2.014,2.525.242.38.561.748.792,1.128l.726,1.133c.473.793.914,1.53,1.331,2.283.215.363.407.727.611,1.1-.253-.688-.66-1.788-.66-1.893-.418-1.794-.292-5.661,1.277-6.993a1.931,1.931,0,0,1,3.125.737,2.837,2.837,0,0,1,.176.5,8.658,8.658,0,0,1,2.349,3.851c.028.115.247,1.519.341,2.245.039-.616.083-1.227.116-1.865.05-.919.082-1.893.115-2.834,0-.49-.011-.968,0-1.475s-.044-.98-.044-1.474c-.033-.721-.1-1.464-.165-2.2A11.666,11.666,0,0,1,86.3,346.4a4.28,4.28,0,0,1-2.75-2.834,2.878,2.878,0,0,1,1.788-3.361c1.843-.484,4.083,2.112,4.787,3.763.022.049.138.424.269.864-.082-.721-.165-1.441-.269-2.162-.3-2.053-.655-4.121-1.007-6.2-.077-.435-.143-.869-.215-1.3a12.68,12.68,0,0,1-4.4-.115,4.239,4.239,0,0,1-2.751-2.828,2.873,2.873,0,0,1,1.788-3.362c1.843-.484,4.083,2.108,4.781,3.758.027.06.165.5.313,1-.176-1.133-.341-2.266-.473-3.4A48.922,48.922,0,0,1,87.8,324.3c-.242.033-3.274.412-4.545-.094a4.282,4.282,0,0,1-2.75-2.834,2.873,2.873,0,0,1,1.788-3.362c1.843-.484,4.083,2.113,4.781,3.763.049.1.534,1.717.687,2.3V324a38.744,38.744,0,0,1,.55-5.893,52,52,0,0,1,1.139-5.2c.412-1.6.88-3.043,1.3-4.314.231-.687.456-1.315.666-1.9h-.039v-2.75c.159-1.915,1.48-5.612,3.3-6.25,1.31-.462,2.438.533,2.569,2.019a6.23,6.23,0,0,1-1.7,4.192,16.394,16.394,0,0,1-4.033,2.712c-.209.605-.429,1.26-.66,1.986-.391,1.277-.831,2.724-1.216,4.319-.1.429-.2.891-.3,1.331.3-.7.732-1.717.782-1.8.9-1.694,3.515-4.44,5.3-4.066,1.287.27,1.832,1.81,1.348,3.268a5.482,5.482,0,0,1-3.108,3,12.967,12.967,0,0,1-4.5.38c-.2.984-.4,2.008-.55,3.075a38.426,38.426,0,0,0-.446,5.838h.105c.209-.7.682-2.162.732-2.278.776-1.782,3.12-4.814,4.952-4.671,1.3.1,2,1.546,1.651,3.037a5.786,5.786,0,0,1-2.839,3.35,13.965,13.965,0,0,1-4.583.952,48.907,48.907,0,0,0,.462,5.689c.186,1.392.429,2.778.682,4.171.138-.5.759-2.416.814-2.553.776-1.783,3.12-4.809,4.952-4.671,1.3.1,2,1.54,1.651,3.037a5.8,5.8,0,0,1-2.839,3.356,13.616,13.616,0,0,1-4.561.946c.116.633.231,1.266.352,1.893.391,2.063.792,4.127,1.133,6.184.116.71.209,1.42.3,2.135.226-.754.66-2.091.7-2.2.776-1.783,3.119-4.815,4.952-4.672,1.3.1,2,1.546,1.65,3.037a5.82,5.82,0,0,1-2.839,3.351,13.187,13.187,0,0,1-4.4.935c.148,1.188.281,2.366.358,3.544.022.512.071,1.023.071,1.519v1.469c-.016,1.012-.027,1.948-.06,2.888-.016.479-.06.93-.06,1.392.132-.776.363-2,.4-2.113.534-1.87,2.487-5.227,4.346-5.414,1.338-.132,2.228,1.139,2.074,2.658a6.1,6.1,0,0,1-2.41,3.763,14.954,14.954,0,0,1-4.434,1.723c-.049,1.133-.115,2.234-.187,3.268-.2,2.938-.468,5.474-.687,7.34H89.367c.275-1.827.561-4.358.825-7.328.083-.93.16-1.921.231-2.938a13.262,13.262,0,0,1-4.253-.826,29.058,29.058,0,0,1-2.058,2.438c.5.919.969,1.81,1.4,2.663,1.194,2.355,2.151,4.418,2.845,5.992H86.93c-.622-1.464-1.42-3.263-2.388-5.276C84.151,360.976,83.76,360.134,83.436,359.414Z" transform="translate(-53.54 -297.579)" fill="#4c8613"/>
          <path id="Path_11" data-name="Path 11" d="M51.7,344.477a2.916,2.916,0,0,1,.831-3.73c1.679-1.112,4.583.462,5.717,1.716.1.11,1.42,2.041,1.414,2.047s-3.087,1.584-4.533,1.584A3.833,3.833,0,0,1,51.7,344.477Z" transform="translate(-51.351 -314.542)" fill="#4c8613"/>
          <path id="Path_12" data-name="Path 12" d="M101.677,319.17a4.876,4.876,0,0,1-1.9-3.642c.049-1.486,1.123-2.845,2.449-2.784,1.837.083,3.34,3.351,3.615,5.194.027.182.148,2.751.115,2.751C105.958,320.688,102.811,320.122,101.677,319.17Z" transform="translate(-70.548 -303.59)" opacity="0.2"/>
          <path id="Path_13" data-name="Path 13" d="M83.436,359.414c-.33.214-2.971,1.931-4.335,2.112a3.781,3.781,0,0,1-3.62-1.1,2.878,2.878,0,0,1,.479-3.78c1.573-1.315,4.649-.176,5.92.924.077.072.946,1.024,1.381,1.519-.247-.5-.517-1-.8-1.519-.391-.748-.831-1.524-1.255-2.278l-.7-1.15c-.231-.38-.5-.721-.743-1.1-.38-.54-.792-1.062-1.2-1.612a15.255,15.255,0,0,1-3.885,2.658c-1.222.374-2.834.468-3.786-.457a2.785,2.785,0,0,1,0-3.758c1.4-1.557,4.638-.974,6.053-.148.043.028.324.242.654.5-.418-.506-.831-1.013-1.277-1.508-1.221-1.42-2.536-2.784-3.851-4.171l-.809-.875a16.421,16.421,0,0,1-3.989,2.751c-1.222.38-2.834.473-3.78-.457a2.751,2.751,0,0,1,0-3.758c1.4-1.557,4.638-.974,6.052-.143.056.028.385.286.759.578-.7-.77-1.4-1.546-2.058-2.344a36.977,36.977,0,0,1-3.158-4.363c-.2.182-2.718,2.415-4.093,2.839-1.227.38-2.839.473-3.786-.451a2.784,2.784,0,0,1,0-3.763c1.4-1.557,4.638-.968,6.052-.143.1.061,1.3,1,1.717,1.348l-.038-.056a30.28,30.28,0,0,1-2.322-4.952,44.919,44.919,0,0,1-1.485-4.775c-.4-1.513-.672-2.933-.914-4.187-.121-.688-.225-1.315-.313-1.9v.039c-.022.033-1.277-1.975-1.337-2.119-.759-1.607-1.348-5.342-.039-6.993a2,2,0,0,1,3.262-.077c.826,1.051.8,2.9.5,4.352a20.452,20.452,0,0,1-2.289,4.688c.1.61.22,1.254.363,1.969.259,1.243.567,2.652.99,4.137.11.4.242.82.369,1.233-.083-.759-.176-1.8-.176-1.909,0-1.9.98-5.7,2.751-6.553,1.26-.638,2.481.209,2.751,1.651a6.219,6.219,0,0,1-1.326,4.33,17.017,17.017,0,0,1-3.824,3.174c.286.9.6,1.822.979,2.751a29.626,29.626,0,0,0,2.4,4.82l.094-.061c-.148-.677-.441-2.118-.441-2.245-.17-1.876.462-5.733,2.163-6.795a1.928,1.928,0,0,1,2.944,1.287A6.3,6.3,0,0,1,69.51,332a19.036,19.036,0,0,1-3.631,3.681,37.948,37.948,0,0,0,3.147,4.127c.837.957,1.717,1.881,2.608,2.8-.115-.473-.5-2.366-.5-2.5-.171-1.876.462-5.733,2.162-6.8a1.942,1.942,0,0,1,2.944,1.293,6.283,6.283,0,0,1-.919,4.4,18.894,18.894,0,0,1-3.609,3.664l1.216,1.243c1.343,1.331,2.685,2.7,3.978,4.083.445.479.869.968,1.293,1.458-.148-.715-.418-2.03-.418-2.146-.176-1.876.462-5.733,2.163-6.8a1.94,1.94,0,0,1,2.944,1.293,6.2,6.2,0,0,1-.925,4.4,18,18,0,0,1-3.472,3.554c.7.825,1.381,1.662,2.014,2.525.242.38.561.748.792,1.128l.726,1.133c.473.793.914,1.53,1.331,2.283.215.363.407.727.611,1.1-.253-.688-.66-1.788-.66-1.893-.418-1.794-.292-5.661,1.277-6.993a1.931,1.931,0,0,1,3.125.737,2.837,2.837,0,0,1,.176.5,8.658,8.658,0,0,1,2.349,3.851c.028.115.247,1.519.341,2.245.039-.616.083-1.227.116-1.865.05-.919.082-1.893.115-2.834,0-.49-.011-.968,0-1.475s-.044-.98-.044-1.474c-.033-.721-.1-1.464-.165-2.2A11.666,11.666,0,0,1,86.3,346.4a4.28,4.28,0,0,1-2.75-2.834,2.878,2.878,0,0,1,1.788-3.361c1.843-.484,4.083,2.112,4.787,3.763.022.049.138.424.269.864-.082-.721-.165-1.441-.269-2.162-.3-2.053-.655-4.121-1.007-6.2-.077-.435-.143-.869-.215-1.3a12.68,12.68,0,0,1-4.4-.115,4.239,4.239,0,0,1-2.751-2.828,2.873,2.873,0,0,1,1.788-3.362c1.843-.484,4.083,2.108,4.781,3.758.027.06.165.5.313,1-.176-1.133-.341-2.266-.473-3.4A48.922,48.922,0,0,1,87.8,324.3c-.242.033-3.274.412-4.545-.094a4.282,4.282,0,0,1-2.75-2.834,2.873,2.873,0,0,1,1.788-3.362c1.843-.484,4.083,2.113,4.781,3.763.049.1.534,1.717.687,2.3V324a38.744,38.744,0,0,1,.55-5.893,52,52,0,0,1,1.139-5.2c.412-1.6.88-3.043,1.3-4.314.231-.687.456-1.315.666-1.9h-.039v-2.75c.159-1.915,1.48-5.612,3.3-6.25,1.31-.462,2.438.533,2.569,2.019a6.23,6.23,0,0,1-1.7,4.192,16.394,16.394,0,0,1-4.033,2.712c-.209.605-.429,1.26-.66,1.986-.391,1.277-.831,2.724-1.216,4.319-.1.429-.2.891-.3,1.331.3-.7.732-1.717.782-1.8.9-1.694,3.515-4.44,5.3-4.066,1.287.27,1.832,1.81,1.348,3.268a5.482,5.482,0,0,1-3.108,3,12.967,12.967,0,0,1-4.5.38c-.2.984-.4,2.008-.55,3.075a38.426,38.426,0,0,0-.446,5.838h.105c.209-.7.682-2.162.732-2.278.776-1.782,3.12-4.814,4.952-4.671,1.3.1,2,1.546,1.651,3.037a5.786,5.786,0,0,1-2.839,3.35,13.965,13.965,0,0,1-4.583.952,48.907,48.907,0,0,0,.462,5.689c.186,1.392.429,2.778.682,4.171.138-.5.759-2.416.814-2.553.776-1.783,3.12-4.809,4.952-4.671,1.3.1,2,1.54,1.651,3.037a5.8,5.8,0,0,1-2.839,3.356,13.616,13.616,0,0,1-4.561.946c.116.633.231,1.266.352,1.893.391,2.063.792,4.127,1.133,6.184.116.71.209,1.42.3,2.135.226-.754.66-2.091.7-2.2.776-1.783,3.119-4.815,4.952-4.672,1.3.1,2,1.546,1.65,3.037a5.82,5.82,0,0,1-2.839,3.351,13.187,13.187,0,0,1-4.4.935c.148,1.188.281,2.366.358,3.544.022.512.071,1.023.071,1.519v1.469c-.016,1.012-.027,1.948-.06,2.888-.016.479-.06.93-.06,1.392.132-.776.363-2,.4-2.113.534-1.87,2.487-5.227,4.346-5.414,1.338-.132,2.228,1.139,2.074,2.658a6.1,6.1,0,0,1-2.41,3.763,14.954,14.954,0,0,1-4.434,1.723c-.049,1.133-.115,2.234-.187,3.268-.2,2.938-.468,5.474-.687,7.34H89.367c.275-1.827.561-4.358.825-7.328.083-.93.16-1.921.231-2.938a13.262,13.262,0,0,1-4.253-.826,29.058,29.058,0,0,1-2.058,2.438c.5.919.969,1.81,1.4,2.663,1.194,2.355,2.151,4.418,2.845,5.992H86.93c-.622-1.464-1.42-3.263-2.388-5.276C84.151,360.976,83.76,360.134,83.436,359.414Z" transform="translate(-53.54 -297.579)" opacity="0.2"/>
          <path id="Path_14" data-name="Path 14" d="M51.7,344.477a2.916,2.916,0,0,1,.831-3.73c1.679-1.112,4.583.462,5.717,1.716.1.11,1.42,2.041,1.414,2.047s-3.087,1.584-4.533,1.584A3.833,3.833,0,0,1,51.7,344.477Z" transform="translate(-51.351 -314.542)" opacity="0.2"/>
        </g>
      </g>
    </g>
    <g id="Bag_2" data-name="Bag 2" transform="translate(73.26 94.721)">
      <g id="Group_6" data-name="Group 6">
        <g id="Group_3" data-name="Group 3" transform="translate(33.002)">
          <path id="Path_15" data-name="Path 15" d="M176.733,128.927a17.2,17.2,0,1,0-21.461,16.64l4.115,7.178,3.924-7A17.2,17.2,0,0,0,176.733,128.927Z" transform="translate(-142.328 -111.698)" fill="#fff"/>
          <path id="Path_16" data-name="Path 16" d="M167.73,141.315v2.847h-2.536v-2.74a12.085,12.085,0,0,1-6.316-2.033l1.4-3.087a10.286,10.286,0,0,0,4.917,1.794v-4.235c-2.811-.682-5.981-1.627-5.981-5.252,0-2.68,1.95-4.988,5.981-5.443v-2.823h2.536v2.764a11.544,11.544,0,0,1,5.144,1.555l-1.268,3.111a10.508,10.508,0,0,0-3.876-1.316v4.319c2.811.658,5.91,1.591,5.91,5.168C173.651,138.551,171.713,140.836,167.73,141.315Zm-2.536-11.2v-3.589c-1.34.3-1.878,1.041-1.878,1.866s.766,1.364,1.878,1.723Zm4.355,6.1c0-.885-.73-1.363-1.819-1.746v3.5c1.268-.287,1.819-.945,1.819-1.759Z" transform="translate(-148.889 -115.126)" fill="#4c8613"/>
        </g>
        <g id="Group_5" data-name="Group 5" transform="translate(0 55.611)">
          <g id="Group_4" data-name="Group 4">
            <g id="character-2--inject-1">
              <path id="Path_17" data-name="Path 17" d="M110.74,209.145l9.291,129.407,96.889-11.282L189.711,203.836Z" transform="translate(-96.803 -203.836)" fill="#4c8613" stroke="#263238" stroke-linecap="round" stroke-linejoin="round" stroke-width="1"/>
              <path id="Path_18" data-name="Path 18" d="M101.586,212.632,87.65,335.4l23.227,6.636Z" transform="translate(-87.65 -207.323)" fill="#4c8613" stroke="#263238" stroke-linecap="round" stroke-linejoin="round" stroke-width="1"/>
            </g>
            <path id="Path_19" data-name="Path 19" d="M110.877,342.039l-9.291-129.407L87.65,335.4Z" transform="translate(-87.65 -207.323)" opacity="0.1"/>
          </g>
          <path id="Path_20" data-name="Path 20" d="M155.921,220.461s5.491,23.427,20.828,25.673,19.836-31.014,19.836-31.014" transform="translate(-114.715 -208.309)" fill="none" stroke="#263238" stroke-linecap="round" stroke-linejoin="round" stroke-width="1"/>
          <circle id="Ellipse_3" data-name="Ellipse 3" cx="2.904" cy="2.904" r="2.904" transform="translate(38.302 8.661)" fill="#263238"/>
        </g>
      </g>
    </g>
    <g id="Phone" transform="translate(166.156 104.603)">
      <g id="Group_8" data-name="Group 8">
        <g id="Device--inject-1">
          <rect id="Rectangle_1" data-name="Rectangle 1" width="97.496" height="175.704" rx="9.813" transform="translate(4.519)" fill="#263238" stroke="#263238" stroke-linecap="round" stroke-linejoin="round" stroke-width="1"/>
          <rect id="Rectangle_2" data-name="Rectangle 2" width="97.496" height="175.704" rx="9.813" fill="#fff" stroke="#263238" stroke-linecap="round" stroke-linejoin="round" stroke-width="1"/>
          <path id="Path_21" data-name="Path 21" d="M324.7,143.822H312.561a1.246,1.246,0,0,1-1.246-1.246h0a1.255,1.255,0,0,1,1.246-1.246H324.7a1.246,1.246,0,0,1,1.246,1.246h0a1.237,1.237,0,0,1-1.228,1.246Z" transform="translate(-269.214 -133.328)" fill="#263238"/>
          <path id="Path_22" data-name="Path 22" d="M336.934,145.745V295.057H251.77V145.7h20.181l2.262,1.881a4.456,4.456,0,0,0,2.828,1.018h35.625a4.394,4.394,0,0,0,2.911-1.1l2.058-1.755Z" transform="translate(-245.609 -135.061)" fill="#263238"/>
          <path id="Path_23" data-name="Path 23" d="M336.935,295.06H251.768V145.706h20.181l2.264,1.878a4.45,4.45,0,0,0,2.825,1.018h35.626a4.386,4.386,0,0,0,2.913-1.1l2.053-1.755h19.3Z" transform="translate(-245.608 -135.062)" fill="none" stroke="#263238" stroke-linecap="round" stroke-linejoin="round" stroke-width="1"/>
          <path id="Path_24" data-name="Path 24" d="M324.281,399.517a1.939,1.939,0,1,0-1.939,1.939h.008a1.931,1.931,0,0,0,1.931-1.93Z" transform="translate(-272.817 -234.913)" fill="#263238"/>
        </g>
        <g id="Group_7" data-name="Group 7" transform="translate(6.161 20.429)">
          <path id="Path_25" data-name="Path 25" d="M341.844,264.461V283.58l-58.562,58.557H264.167Z" transform="translate(-256.685 -202.57)" fill="#fff" opacity="0.2"/>
          <path id="Path_26" data-name="Path 26" d="M336.934,161.918v31.432L251.77,278.515V247.088Z" transform="translate(-251.77 -161.918)" fill="#fff" opacity="0.2"/>
        </g>
      </g>
    </g>
    <g id="Message" transform="translate(149.705 142.597)">
      <g id="Group_13" data-name="Group 13">
        <rect id="Rectangle_3" data-name="Rectangle 3" width="124.486" height="74.258" rx="8.452" fill="#fff" stroke="#263238" stroke-linecap="round" stroke-linejoin="round" stroke-width="1"/>
        <text id="THANK_YOU_" data-name="THANK YOU!" transform="translate(27.366 17.734)" fill="#4c8613" font-size="9" font-family="SegoeUI, Segoe UI"><tspan x="0" y="0">THANK YOU!</tspan></text>
        <text id="Your_order_is_confirmed" data-name="Your order is confirmed" transform="translate(22.814 30.835)" font-size="5" font-family="SegoeUI, Segoe UI"><tspan x="0" y="0">Your order is confirmed</tspan></text>
        <g id="Group_12" data-name="Group 12" transform="translate(13.237 37.918)">
          <g id="Group_9" data-name="Group 9" transform="translate(28.953 5.841)">
            <path id="Path_27" data-name="Path 27" d="M342.523,278.05H291.472a7.265,7.265,0,0,1-7.265-7.265h0a7.265,7.265,0,0,1,7.265-7.265h51.051a7.265,7.265,0,0,1,7.265,7.265h0A7.265,7.265,0,0,1,342.523,278.05Z" transform="translate(-284.207 -263.52)" fill="#4c8613"/>
            <text id="CHECK_STATUS" data-name="CHECK STATUS" transform="translate(7.454 7.978)" fill="#263238" font-size="4" font-family="SegoeUI, Segoe UI" letter-spacing="0.2em"><tspan x="0" y="0">CHECK STATUS</tspan></text>
          </g>
          <g id="Group_11" data-name="Group 11">
            <circle id="Ellipse_4" data-name="Ellipse 4" cx="9.267" cy="9.267" r="9.267" transform="translate(0 13.106) rotate(-45)" fill="#4c8613"/>
            <circle id="Ellipse_5" data-name="Ellipse 5" cx="9.267" cy="9.267" r="9.267" transform="translate(0 13.106) rotate(-45)" fill="#fff" opacity="0.2" style="isolation: isolate"/>
            <g id="Group_10" data-name="Group 10" transform="translate(4.7 4.571)">
              <circle id="Ellipse_6" data-name="Ellipse 6" cx="6.009" cy="6.009" r="6.009" transform="translate(0 8.498) rotate(-45)" fill="#fff" stroke="#263238" stroke-miterlimit="10" stroke-width="1"/>
              <path id="Path_28" data-name="Path 28" d="M253.5,272.986l2.312,3.237,4.163-5.319" transform="translate(-247.781 -265.178)" fill="none" stroke="#263238" stroke-linecap="round" stroke-linejoin="round" stroke-width="1"/>
            </g>
          </g>
        </g>
      </g>
    </g>
    <g id="Bag_1" data-name="Bag 1" transform="translate(117.173 213.979)">
      <g id="Group_15" data-name="Group 15" transform="translate(0 0)">
        <g id="Group_14" data-name="Group 14">
          <g id="character-2--inject-1-2" data-name="character-2--inject-1">
            <path id="Path_29" data-name="Path 29" d="M172.913,312.162l5.033,70.1,52.483-6.111-14.738-66.862Z" transform="translate(-165.364 -309.286)" fill="#4c8613" stroke="#263238" stroke-linecap="round" stroke-linejoin="round" stroke-width="1"/>
            <path id="Path_30" data-name="Path 30" d="M167.955,314.051l-7.549,66.5,12.582,3.595Z" transform="translate(-160.406 -311.175)" fill="#4c8613" stroke="#263238" stroke-linecap="round" stroke-linejoin="round" stroke-width="1"/>
          </g>
          <path id="Path_31" data-name="Path 31" d="M172.988,384.7l-5.128-69.261L160.406,381.1Z" transform="translate(-160.406 -311.724)" opacity="0.1"/>
        </g>
        <path id="Path_32" data-name="Path 32" d="M198.645,318.658s4,12.236,12.281,12.729,7.126-14.122,7.126-14.122" transform="translate(-175.565 -312.449)" fill="none" stroke="#263238" stroke-linecap="round" stroke-linejoin="round" stroke-width="1"/>
        <path id="Path_33" data-name="Path 33" d="M199.018,318.86a1.086,1.086,0,1,1-1.086-1.086A1.087,1.087,0,0,1,199.018,318.86Z" transform="translate(-174.852 -312.651)" fill="#263238"/>
        <path id="Path_34" data-name="Path 34" d="M230.873,316.55a1.086,1.086,0,1,1-1.086-1.086A1.086,1.086,0,0,1,230.873,316.55Z" transform="translate(-187.48 -311.735)" fill="#263238"/>
      </g>
    </g>
  </g>
</svg>
