<svg xmlns="http://www.w3.org/2000/svg" width="19.747" height="22.001" viewBox="0 0 19.747 22.001">
  <g id="COCO_Duotone_Unlock" data-name="COCO/Duotone/Unlock" transform="translate(-3.236 -2.247)">
    <path id="Vector" d="M.349,8.98A6,6,0,0,1,4.988,4.727L5.3,4.663a19.142,19.142,0,0,1,7.615,0l.314.064A6,6,0,0,1,17.871,8.98a10.007,10.007,0,0,1-.4,6.4l-.106.26a6.552,6.552,0,0,1-5.089,3.947l-.853.133a15.031,15.031,0,0,1-4.638,0l-.853-.133A6.552,6.552,0,0,1,.849,15.643l-.106-.26A10.007,10.007,0,0,1,.349,8.98Z" transform="translate(4 3.594)" fill="rgba(130,130,130,0.15)" stroke="#828282" stroke-linecap="round" stroke-width="1.5"/>
    <path id="Vector-2" data-name="Vector" d="M3.644,5.062V4.793A4.823,4.823,0,0,1,7.373.164L7.451.145A4.861,4.861,0,0,1,9.761.134a4.724,4.724,0,0,1,2.17,1.179l.291.279" transform="translate(4.506 3)" fill="rgba(130,130,130,0.15)" stroke="#828282" stroke-linecap="round" stroke-width="1.5"/>
    <path id="Vector-3" data-name="Vector" d="M0,0V2.277" transform="translate(13.11 14.957)" fill="rgba(130,130,130,0.15)" stroke="#828282" stroke-linecap="round" stroke-width="1.5"/>
  </g>
</svg>
