<svg xmlns="http://www.w3.org/2000/svg" width="17.442" height="21.997" viewBox="0 0 17.442 21.997">
  <g id="COCO_Duotone_User" data-name="COCO/Duotone/User" transform="translate(-4.25 -2.25)">
    <path id="Vector" d="M0,16.821A5.54,5.54,0,0,1,4.56,11.3L4.8,11.26a19.51,19.51,0,0,1,6.35,0l.237.039a5.54,5.54,0,0,1,4.56,5.522,2.117,2.117,0,0,1-2.082,2.151H2.082A2.117,2.117,0,0,1,0,16.821Z" transform="translate(5 4.526)" fill="rgba(130,130,130,0.15)" stroke="#828282" stroke-width="1.5"/>
    <path id="Vector-2" data-name="Vector" d="M12.216,4.484a4.569,4.569,0,0,1-4.65,4.484,4.569,4.569,0,0,1-4.65-4.484A4.569,4.569,0,0,1,7.567,0,4.569,4.569,0,0,1,12.216,4.484Z" transform="translate(5.405 3)" fill="rgba(130,130,130,0.15)" stroke="#828282" stroke-width="1.5"/>
  </g>
</svg>
